<?xml version="1.0" standalone="no"?>
<!DOCTYPE svg PUBLIC "-//W3C//DTD SVG 20010904//EN"
 "http://www.w3.org/TR/2001/REC-SVG-20010904/DTD/svg10.dtd">
<svg version="1.0" xmlns="http://www.w3.org/2000/svg"
 width="700.000000pt" height="700.000000pt" viewBox="0 0 700.000000 700.000000"
 preserveAspectRatio="xMidYMid meet">
<metadata>
Created by potrace 1.14, written by Peter Selinger 2001-2017
</metadata>
<g transform="translate(0.000000,700.000000) scale(0.100000,-0.100000)"
fill="#000000" stroke="none">
<path d="M6120 4358 c-95 -183 -174 -293 -309 -429 -263 -263 -632 -444 -985
-484 -225 -25 -409 21 -700 174 -107 56 -233 128 -306 175 -71 46 -174 111
-191 121 -22 13 -101 61 -212 130 -48 30 -107 66 -130 79 -23 13 -70 40 -105
59 -177 101 -377 178 -527 203 -121 20 -295 7 -460 -36 -233 -60 -474 -189
-690 -370 -47 -40 -236 -230 -283 -285 -189 -223 -388 -576 -482 -855 -30 -90
-92 -322 -87 -326 2 -1 127 -31 169 -39 13 -3 29 15 57 63 87 148 166 248 311
392 210 210 449 369 720 480 58 23 109 43 115 45 5 1 30 8 55 15 25 7 50 14
55 16 132 31 183 38 300 38 133 1 225 -15 364 -61 195 -64 481 -227 856 -488
330 -230 550 -336 815 -392 67 -14 320 -7 405 11 214 46 487 170 630 287 134
109 217 188 305 289 65 73 203 267 246 345 90 162 198 390 235 495 67 192 106
316 101 322 -8 7 -220 88 -232 88 -5 0 -23 -28 -40 -62z"/>
</g>
</svg>
