<svg xmlns="http://www.w3.org/2000/svg" width="933.333" height="933.333" version="1.0" viewBox="0 0 700 700">
    <path d="M612 264.2c-9.5 18.3-17.4 29.3-30.9 42.9-26.3 26.3-63.2 44.4-98.5 48.4-22.5 2.5-40.9-2.1-70-17.4-10.7-5.6-23.3-12.8-30.6-17.5-7.1-4.6-17.4-11.1-19.1-12.1-2.2-1.3-10.1-6.1-21.2-13-4.8-3-10.7-6.6-13-7.9s-7-4-10.5-5.9c-17.7-10.1-37.7-17.8-52.7-20.3-12.1-2-29.5-.7-46 3.6-23.3 6-47.4 18.9-69 37-4.7 4-23.6 23-28.3 28.5-18.9 22.3-38.8 57.6-48.2 85.5-3 9-9.2 32.2-8.7 32.6.2.1 12.7 3.1 16.9 3.9 1.3.3 2.9-1.5 5.7-6.3 8.7-14.8 16.6-24.8 31.1-39.2 21-21 44.9-36.9 72-48 5.8-2.3 10.9-4.3 11.5-4.5.5-.1 3-.8 5.5-1.5s5-1.4 5.5-1.6c13.2-3.1 18.3-3.8 30-3.8 13.3-.1 22.5 1.5 36.4 6.1 19.5 6.4 48.1 22.7 85.6 48.8 33 23 55 33.6 81.5 39.2 6.7 1.4 32 .7 40.5-1.1 21.4-4.6 48.7-17 63-28.7 13.4-10.9 21.7-18.8 30.5-28.9 6.5-7.3 20.3-26.7 24.6-34.5 9-16.2 19.8-39 23.5-49.5 6.7-19.2 10.6-31.6 10.1-32.2-.8-.7-22-8.8-23.2-8.8-.5 0-2.3 2.8-4 6.2"/>
</svg>
